{
    "asset" : {
        "generator" : "Khronos glTF Blender I/O v1.6.16",
        "version" : "2.0"
    },
    "scene" : 0,
    "scenes" : [
        {
            "name" : "Scene",
            "nodes" : [
                0
            ]
        }
    ],
    "nodes" : [
        {
            "mesh" : 0,
            "name" : "combined_mesh",
            "rotation" : [
                -0.06491159647703171,
                0,
                0,
                0.9978910088539124
            ],
            "translation" : [
                0,
                -0.022827383130788803,
                0
            ]
        }
    ],
    "animations" : [
        {
            "channels" : [
                {
                    "sampler" : 0,
                    "target" : {
                        "node" : 0,
                        "path" : "rotation"
                    }
                },
                {
                    "sampler" : 1,
                    "target" : {
                        "node" : 0,
                        "path" : "translation"
                    }
                }
            ],
            "name" : "combined_meshAction.001",
            "samplers" : [
                {
                    "input" : 10,
                    "interpolation" : "LINEAR",
                    "output" : 11
                },
                {
                    "input" : 10,
                    "interpolation" : "LINEAR",
                    "output" : 12
                }
            ]
        }
    ],
    "materials" : [
        {
            "doubleSided" : true,
            "name" : "Material.001",
            "pbrMetallicRoughness" : {
                "baseColorTexture" : {
                    "index" : 0
                },
                "metallicFactor" : 0,
                "roughnessFactor" : 0.5
            }
        }
    ],
    "meshes" : [
        {
            "extras" : {
                "targetNames" : [
                    "mouth_open",
                    "eyebrows_up",
                    "hat_side"
                ]
            },
            "name" : "Plane.002",
            "primitives" : [
                {
                    "attributes" : {
                        "POSITION" : 0,
                        "NORMAL" : 1,
                        "TEXCOORD_0" : 2
                    },
                    "indices" : 3,
                    "material" : 0,
                    "targets" : [
                        {
                            "POSITION" : 4,
                            "NORMAL" : 5
                        },
                        {
                            "POSITION" : 6,
                            "NORMAL" : 7
                        },
                        {
                            "POSITION" : 8,
                            "NORMAL" : 9
                        }
                    ]
                }
            ],
            "weights" : [
                0,
                0,
                1
            ]
        }
    ],
    "textures" : [
        {
            "sampler" : 0,
            "source" : 0
        }
    ],
    "images" : [
        {
            "bufferView" : 4,
            "mimeType" : "image/png",
            "name" : "mr_met_tex_002"
        }
    ],
    "accessors" : [
        {
            "bufferView" : 0,
            "componentType" : 5126,
            "count" : 432,
            "max" : [
                1.3881103992462158,
                1.5071696043014526,
                0.9474844336509705
            ],
            "min" : [
                -0.8317497968673706,
                -0.8128352165222168,
                -0.947486937046051
            ],
            "type" : "VEC3"
        },
        {
            "bufferView" : 1,
            "componentType" : 5126,
            "count" : 432,
            "type" : "VEC3"
        },
        {
            "bufferView" : 2,
            "componentType" : 5126,
            "count" : 432,
            "type" : "VEC2"
        },
        {
            "bufferView" : 3,
            "componentType" : 5123,
            "count" : 444,
            "type" : "SCALAR"
        },
        {
            "bufferView" : 5,
            "componentType" : 5126,
            "count" : 432,
            "max" : [
                0.024823665618896484,
                0.15926800668239594,
                0.06668305397033691
            ],
            "min" : [
                -0.0835425853729248,
                -0.2419830560684204,
                -0.06668299436569214
            ],
            "type" : "VEC3"
        },
        {
            "bufferView" : 6,
            "componentType" : 5126,
            "count" : 432,
            "type" : "VEC3"
        },
        {
            "bufferView" : 7,
            "componentType" : 5126,
            "count" : 432,
            "max" : [
                0,
                0.1456770896911621,
                0
            ],
            "min" : [
                0,
                0,
                0
            ],
            "type" : "VEC3"
        },
        {
            "bufferView" : 8,
            "componentType" : 5126,
            "count" : 432,
            "type" : "VEC3"
        },
        {
            "bufferView" : 9,
            "componentType" : 5126,
            "count" : 432,
            "max" : [
                0,
                0.07018172740936279,
                0.2740618586540222
            ],
            "min" : [
                -0.08244407176971436,
                -0.11172378063201904,
                0
            ],
            "type" : "VEC3"
        },
        {
            "bufferView" : 10,
            "componentType" : 5126,
            "count" : 432,
            "type" : "VEC3"
        },
        {
            "bufferView" : 11,
            "componentType" : 5126,
            "count" : 61,
            "max" : [
                2.5416666666666665
            ],
            "min" : [
                0.041666666666666664
            ],
            "type" : "SCALAR"
        },
        {
            "bufferView" : 12,
            "componentType" : 5126,
            "count" : 61,
            "type" : "VEC4"
        },
        {
            "bufferView" : 13,
            "componentType" : 5126,
            "count" : 61,
            "type" : "VEC3"
        }
    ],
    "bufferViews" : [
        {
            "buffer" : 0,
            "byteLength" : 5184,
            "byteOffset" : 0
        },
        {
            "buffer" : 0,
            "byteLength" : 5184,
            "byteOffset" : 5184
        },
        {
            "buffer" : 0,
            "byteLength" : 3456,
            "byteOffset" : 10368
        },
        {
            "buffer" : 0,
            "byteLength" : 888,
            "byteOffset" : 13824
        },
        {
            "buffer" : 0,
            "byteLength" : 17643,
            "byteOffset" : 14712
        },
        {
            "buffer" : 0,
            "byteLength" : 5184,
            "byteOffset" : 32356
        },
        {
            "buffer" : 0,
            "byteLength" : 5184,
            "byteOffset" : 37540
        },
        {
            "buffer" : 0,
            "byteLength" : 5184,
            "byteOffset" : 42724
        },
        {
            "buffer" : 0,
            "byteLength" : 5184,
            "byteOffset" : 47908
        },
        {
            "buffer" : 0,
            "byteLength" : 5184,
            "byteOffset" : 53092
        },
        {
            "buffer" : 0,
            "byteLength" : 5184,
            "byteOffset" : 58276
        },
        {
            "buffer" : 0,
            "byteLength" : 244,
            "byteOffset" : 63460
        },
        {
            "buffer" : 0,
            "byteLength" : 976,
            "byteOffset" : 63704
        },
        {
            "buffer" : 0,
            "byteLength" : 732,
            "byteOffset" : 64680
        }
    ],
    "samplers" : [
        {
            "magFilter" : 9728,
            "minFilter" : 9984
        }
    ],
    "buffers" : [
        {
            "byteLength" : 65412,
            "uri" : "data:application/octet-stream;base64,"
        }
    ]
}
